<svg width="1687" height="1518" viewBox="0 0 1687 1518" fill="none" xmlns="http://www.w3.org/2000/svg">
<path d="M884 344.5C884 384.5 890.333 422.333 903 458C915.667 493.667 936.667 524.5 966 550.5C995.333 576.5 1030.33 589.5 1071 589.5C1121.67 589.5 1167.67 570.333 1209 532C1250.33 493.667 1281 448.5 1301 396.5C1321 344.5 1331 294.167 1331 245.5C1331 205.5 1324.67 167.667 1312 132C1299.33 96.3333 1278.33 65.5 1249 39.5C1219.67 13.5 1184.67 0.5 1144 0.5C1092.67 0.5 1046.5 19.6667 1005.5 58C964.5 96.3333 934 141.333 914 193C894 244.667 884 295.167 884 344.5ZM1226 827.5C1226 880.833 1263 927.167 1291 966.5C1319 1005.83 1358.67 1025.5 1410 1025.5C1460.67 1025.5 1507.83 1007 1551.5 970C1595.17 933 1628.67 888.5 1652 836.5C1675.33 784.5 1687 733.833 1687 684.5C1687 631.167 1673 584.667 1645 545C1617 505.333 1554.33 485.5 1503 485.5C1452.33 485.5 1428.17 504 1384.5 541C1340.83 578 1307.33 622.667 1284 675C1260.67 727.333 1226 778.167 1226 827.5ZM593 589.5C633.667 589.5 668.666 576.5 698 550.5C727.333 524.5 748.333 493.667 761 458C773.666 422.333 780 384.5 780 344.5C780 295.167 770 244.667 750 193C730 141.333 699.5 96.3333 658.5 58C617.5 19.6667 571.333 0.5 520 0.5C479.333 0.5 444.333 13.5 415 39.5C385.667 65.5 364.667 96.3333 352 132C339.333 167.667 333 205.5 333 245.5C333 294.167 343 344.5 363 396.5C383 448.5 413.667 493.667 455 532C496.333 570.333 542.333 589.5 593 589.5ZM161 485.5C109.667 485.5 70 505.333 42 545C14 584.667 0 631.167 0 684.5C0 733.833 11.6666 784.5 35 836.5C58.3334 888.5 91.8334 933 135.5 970C179.167 1007 226.333 1025.5 277 1025.5C328.333 1025.5 368 1005.83 396 966.5C424 927.167 438 880.833 438 827.5C438 778.167 426.333 727.333 403 675C379.667 622.667 346.167 578 302.5 541C258.833 504 211.667 485.5 161 485.5Z" fill="#A66F79"/>
<path d="M378.637 1338.69C393.796 1373.78 415.654 1405.57 442.987 1432.3C470.34 1459.11 502.59 1480.41 537.983 1495.05C574.684 1510.29 614.048 1518.09 653.789 1518C709.544 1518 763.941 1502.74 811.213 1473.91C822.522 1467.01 833.266 1459.43 843.444 1451.18C853.622 1459.43 864.366 1467.01 875.675 1473.91C922.947 1502.74 977.345 1518 1033.1 1518C1073.25 1518 1112.15 1510.31 1148.9 1495.05C1184.42 1480.35 1216.42 1459.21 1243.9 1432.3C1271.27 1405.6 1293.13 1373.8 1308.25 1338.69C1323.97 1302.17 1332 1263.39 1332 1223.48C1332 1185.83 1324.31 1146.6 1309.04 1106.69C1296.26 1073.33 1277.94 1038.74 1254.53 1003.8C1217.44 948.516 1166.43 890.856 1103.1 832.404C998.153 735.511 894.222 668.58 889.812 665.866L863.009 648.681C851.134 641.106 835.867 641.106 823.992 648.681L797.19 665.866C792.779 668.693 688.961 735.511 583.899 832.404C520.567 890.856 469.563 948.516 432.469 1003.8C409.059 1038.74 390.625 1073.33 377.959 1106.69C362.691 1146.6 355.001 1185.83 355.001 1223.48C354.888 1263.39 362.918 1302.17 378.637 1338.69Z" fill="#A66F79"/>
</svg>
